<svg width="26" height="26" viewBox="0 0 26 26" fill="none" xmlns="http://www.w3.org/2000/svg">
<g clip-path="url(#clip0_133_386)">
<path d="M22.9181 19.6702C22.5364 20.5521 22.0846 21.3638 21.5611 22.1101C20.8476 23.1274 20.2633 23.8317 19.813 24.2227C19.1151 24.8646 18.3672 25.1933 17.5664 25.212C16.9915 25.212 16.2982 25.0485 15.4912 24.7166C14.6815 24.3863 13.9374 24.2227 13.257 24.2227C12.5434 24.2227 11.7781 24.3863 10.9596 24.7166C10.1397 25.0485 9.4793 25.2214 8.97436 25.2385C8.20642 25.2712 7.44097 24.9332 6.67693 24.2227C6.18928 23.7974 5.57932 23.0682 4.84862 22.0353C4.06464 20.9322 3.42009 19.6531 2.91514 18.1948C2.37436 16.6197 2.10327 15.0944 2.10327 13.6177C2.10327 11.9262 2.46878 10.4673 3.20088 9.24471C3.77625 8.2627 4.54169 7.48806 5.49971 6.91939C6.45772 6.35072 7.49286 6.06094 8.6076 6.04239C9.21756 6.04239 10.0174 6.23107 11.0114 6.60187C12.0026 6.97392 12.6391 7.1626 12.9181 7.1626C13.1267 7.1626 13.8338 6.94198 15.0323 6.50216C16.1658 6.09428 17.1224 5.92539 17.9061 5.99192C20.0296 6.1633 21.625 7.00041 22.686 8.50855C20.7868 9.6593 19.8473 11.271 19.866 13.3387C19.8832 14.9492 20.4674 16.2894 21.6156 17.3535C22.136 17.8474 22.7172 18.2291 23.3637 18.5002C23.2235 18.9068 23.0755 19.2963 22.9181 19.6702ZM18.0478 0.505257C18.0478 1.76756 17.5867 2.94618 16.6674 4.03709C15.5581 5.33397 14.2164 6.08337 12.7614 5.96512C12.7428 5.81368 12.7321 5.6543 12.7321 5.48681C12.7321 4.275 13.2596 2.97812 14.1965 1.91774C14.6642 1.38085 15.259 0.934439 15.9804 0.578326C16.7002 0.227527 17.381 0.0335268 18.0213 0.000305176C18.04 0.169056 18.0478 0.337817 18.0478 0.50524V0.505257Z" fill="white"/>
</g>
<defs>
<clipPath id="clip0_133_386">
<rect width="25.2404" height="25.2404" rx="12.6202" fill="white"/>
</clipPath>
</defs>
</svg>
