<svg width="127" height="190" viewBox="0 0 127 190" fill="none" xmlns="http://www.w3.org/2000/svg">
<ellipse cx="60.3295" cy="28.7285" rx="28.7284" ry="28.7285" fill="white"/>
<rect x="52.2856" y="48.2639" width="21.259" height="18.3862" fill="white"/>
<rect x="34.4736" y="57.457" width="57.4568" height="77.5669" rx="28.7284" fill="white"/>
<path d="M72.4478 88.3408L61.6479 73.4608L100.708 45.111C104.817 42.1287 110.566 43.042 113.548 47.151C116.53 51.26 115.617 57.0087 111.508 59.991L72.4478 88.3408Z" fill="white"/>
<rect width="18.3862" height="43.0927" rx="9.19311" transform="matrix(-0.761513 0.648149 -0.648148 -0.761514 118.948 52.2918)" fill="white"/>
<path d="M54.1528 57.6601L64.9527 72.5401L25.8927 100.89C21.7837 103.872 16.0351 102.959 13.0528 98.8498C10.0705 94.7408 10.9838 88.9922 15.0928 86.0099L54.1528 57.6601Z" fill="white"/>
<rect width="18.3862" height="43.0927" rx="9.19311" transform="matrix(0.761512 -0.648149 0.648148 0.761515 7.65283 93.709)" fill="white"/>
<path d="M45.3564 110.317L63.1161 115.076L45.4197 181.12C44.1057 186.024 39.0647 188.935 34.1605 187.621C29.2563 186.307 26.346 181.266 27.66 176.361L45.3564 110.317Z" fill="white"/>
<path d="M63.2021 115.076L80.9618 110.317L98.6583 176.361C99.9723 181.266 97.062 186.307 92.1577 187.621C87.2535 188.935 82.2126 186.024 80.8986 181.12L63.2021 115.076Z" fill="white"/>
</svg>
