<svg width="243" height="180" viewBox="0 0 243 180" fill="none" xmlns="http://www.w3.org/2000/svg">
<rect x="172.297" y="49.4178" width="21.5692" height="17.2554" transform="rotate(25 172.297 49.4178)" fill="white"/>
<rect x="159.675" y="49.761" width="48.5308" height="72.7962" rx="24.2654" transform="rotate(30 159.675 49.761)" fill="white"/>
<circle cx="191.711" cy="37.1315" r="26.9615" transform="rotate(25 191.711 37.1315)" fill="white"/>
<path d="M153.264 112.19L139.192 102.204L118.22 131.755C116.014 134.863 116.746 139.172 119.855 141.378C124.518 144.687 130.98 143.59 134.29 138.927L153.264 112.19Z" fill="white"/>
<rect x="177.361" y="131.322" width="17.2554" height="53.9231" rx="8.62769" transform="rotate(55 177.361 131.322)" fill="white"/>
<path d="M149.086 105.168L164.764 97.961L183.169 137.996C185.444 142.944 183.277 148.799 178.329 151.073C174.618 152.779 170.227 151.154 168.521 147.443L149.086 105.168Z" fill="white"/>
<path d="M164.006 96.3097L171.466 80.7501L212.31 100.332C216.607 102.391 218.42 107.545 216.36 111.841C214.3 116.138 209.147 117.951 204.85 115.891L164.006 96.3097Z" fill="white"/>
<rect x="207.911" y="119.849" width="17.2554" height="40.4423" rx="8.62769" transform="rotate(-130 207.911 119.849)" fill="white"/>
<path d="M174.546 80.6401L165.759 95.4904L126.777 72.4236C122.676 69.9971 121.319 64.7056 123.745 60.6048C126.172 56.504 131.463 55.1468 135.564 57.5734L174.546 80.6401Z" fill="white"/>
<rect x="121.468" y="52.8729" width="17.2554" height="40.4423" rx="8.62769" transform="rotate(15 121.468 52.8729)" fill="white"/>
<path d="M65.0762 74.7318C64.027 74.044 62.7334 73.5358 61.3103 73.2524C59.8872 72.9689 58.3787 72.919 56.9189 73.1071C55.4591 73.2952 54.0932 73.7155 52.9426 74.3305C51.792 74.9456 50.8925 75.7364 50.3239 76.6326C49.7553 77.5288 49.5352 78.5028 49.6833 79.4678C49.8314 80.4328 50.3431 81.3591 51.1728 82.1641C52.0025 82.9692 53.1245 83.6283 54.4392 84.0826C55.7539 84.537 57.2204 84.7726 58.7085 84.7685H99.353M51.528 118.352C50.4789 119.039 49.1853 119.548 47.7622 119.831C46.3391 120.114 44.8305 120.164 43.3707 119.976C41.9109 119.788 40.545 119.368 39.3944 118.753C38.2439 118.138 37.3443 117.347 36.7757 116.451C36.2071 115.555 35.987 114.581 36.1351 113.616C36.2832 112.651 36.7949 111.724 37.6246 110.919C38.4543 110.114 39.5764 109.455 40.891 109.001C42.2057 108.546 43.6723 108.311 45.1603 108.315H99.353M28.3154 83.9738C27.0019 83.1199 25.3858 82.4901 23.61 82.1402C21.8342 81.7902 19.9534 81.7308 18.1341 81.9673C16.3147 82.2038 14.6127 82.7288 13.1788 83.496C11.7448 84.2632 10.623 85.2488 9.91262 86.3658C9.20221 87.4828 8.92508 88.6966 9.10573 89.9C9.28639 91.1034 9.91926 92.2592 10.9484 93.2652C11.9775 94.2713 13.3712 95.0965 15.0061 95.668C16.641 96.2395 18.4668 96.5395 20.322 96.5417H99.353" stroke="white" stroke-width="4" stroke-linecap="round" stroke-linejoin="round"/>
<path d="M128.861 143.646C132.764 140.913 133.713 135.533 130.98 131.63C128.247 127.726 122.867 126.778 118.964 129.511L93.3443 147.45C89.441 150.183 88.4924 155.563 91.2255 159.466C93.9586 163.369 99.3383 164.318 103.242 161.585L128.861 143.646Z" fill="white"/>
</svg>
