<svg width="52" height="10" viewBox="0 0 52 10" fill="none" xmlns="http://www.w3.org/2000/svg">
<path d="M0.571289 9.36279C0.222168 9.36279 0 9.13428 0 8.77246V0.70459C0 0.342773 0.222168 0.114258 0.571289 0.114258H3.26904C4.98926 0.114258 6.20166 1.32031 6.20166 3.05322C6.20166 4.79248 4.97656 6.00488 3.25635 6.00488H1.14258V8.77246C1.14258 9.13428 0.92041 9.36279 0.571289 9.36279ZM1.14258 4.98926H2.9707C4.27832 4.98926 5.02734 4.27197 5.02734 3.05322C5.02734 1.84082 4.28467 1.12988 2.9707 1.12988H1.14258V4.98926ZM8.69629 9.38818C7.38232 9.38818 6.5 8.59473 6.5 7.40771C6.5 6.27783 7.36963 5.56689 8.89307 5.47803L10.791 5.37012V4.81787C10.791 4.01172 10.2578 3.5293 9.34375 3.5293C8.62646 3.5293 8.1377 3.78955 7.76953 4.44336C7.66797 4.62744 7.52197 4.70996 7.3125 4.70996C7.02686 4.70996 6.82373 4.51318 6.82373 4.21484C6.82373 4.0752 6.86816 3.9165 6.95703 3.75781C7.33154 3.03418 8.29639 2.55811 9.36914 2.55811C10.918 2.55811 11.8955 3.396 11.8955 4.70996V8.82959C11.8955 9.15967 11.6797 9.38818 11.375 9.38818C11.064 9.38818 10.8481 9.15967 10.8481 8.82959V8.1377H10.8228C10.4292 8.89307 9.58496 9.38818 8.69629 9.38818ZM8.94385 8.44873C9.98486 8.44873 10.791 7.71875 10.791 6.7666V6.22705L9.02002 6.33496C8.13135 6.39209 7.62354 6.78564 7.62354 7.40771C7.62354 8.03613 8.15039 8.44873 8.94385 8.44873ZM15.5898 9.38818C14.4155 9.38818 13.4951 8.86133 13.1777 8.03613C13.1396 7.94092 13.127 7.8584 13.127 7.77588C13.127 7.48389 13.3428 7.31885 13.6284 7.31885C13.8252 7.31885 13.9839 7.42041 14.1108 7.64893C14.4409 8.22656 14.8345 8.48682 15.6787 8.48682C16.5229 8.48682 17.0942 8.11865 17.0942 7.50293C17.0942 7.02686 16.8213 6.77295 16.0786 6.58887L15.0693 6.33496C13.7935 6.01758 13.1777 5.41455 13.1777 4.48779C13.1777 3.33887 14.187 2.55811 15.6787 2.55811C16.7642 2.55811 17.729 3.16748 17.9004 3.96094C17.9131 4.02441 17.9194 4.0752 17.9194 4.12598C17.9194 4.38623 17.7544 4.55762 17.4878 4.55762C17.272 4.55762 17.1196 4.48779 16.999 4.25928C16.7134 3.70703 16.2881 3.46582 15.6152 3.46582C14.8218 3.46582 14.2695 3.86572 14.2695 4.43066C14.2695 4.8877 14.625 5.20508 15.3486 5.38281L16.3325 5.62402C17.71 5.96045 18.2178 6.44287 18.2178 7.41406C18.2178 8.59473 17.1577 9.38818 15.5898 9.38818ZM21.6455 9.38818C20.4712 9.38818 19.5508 8.86133 19.2334 8.03613C19.1953 7.94092 19.1826 7.8584 19.1826 7.77588C19.1826 7.48389 19.3984 7.31885 19.6841 7.31885C19.8809 7.31885 20.0396 7.42041 20.1665 7.64893C20.4966 8.22656 20.8901 8.48682 21.7344 8.48682C22.5786 8.48682 23.1499 8.11865 23.1499 7.50293C23.1499 7.02686 22.877 6.77295 22.1343 6.58887L21.125 6.33496C19.8491 6.01758 19.2334 5.41455 19.2334 4.48779C19.2334 3.33887 20.2427 2.55811 21.7344 2.55811C22.8198 2.55811 23.7847 3.16748 23.9561 3.96094C23.9688 4.02441 23.9751 4.0752 23.9751 4.12598C23.9751 4.38623 23.8101 4.55762 23.5435 4.55762C23.3276 4.55762 23.1753 4.48779 23.0547 4.25928C22.769 3.70703 22.3438 3.46582 21.6709 3.46582C20.8774 3.46582 20.3252 3.86572 20.3252 4.43066C20.3252 4.8877 20.6807 5.20508 21.4043 5.38281L22.3882 5.62402C23.7656 5.96045 24.2734 6.44287 24.2734 7.41406C24.2734 8.59473 23.2134 9.38818 21.6455 9.38818ZM27.2695 9.38818C26.9204 9.38818 26.7109 9.22314 26.603 8.85498L24.9907 3.31982C24.959 3.21191 24.9463 3.1167 24.9463 3.03418C24.9463 2.74219 25.1558 2.55811 25.4858 2.55811C25.7588 2.55811 25.9048 2.68506 25.9873 3.00879L27.2886 8.04248H27.314L28.6978 3.05322C28.7866 2.72949 29.0088 2.55811 29.3452 2.55811C29.6753 2.55811 29.8848 2.72314 29.9736 3.04688L31.3701 8.04248H31.3955L32.6968 3.00879C32.7793 2.68506 32.9253 2.55811 33.1982 2.55811C33.5283 2.55811 33.7378 2.74219 33.7378 3.03418C33.7378 3.1167 33.7251 3.21191 33.6934 3.31982L32.0811 8.85498C31.9795 9.21045 31.751 9.38818 31.4082 9.38818C31.04 9.38818 30.8306 9.22949 30.7227 8.85498L29.3516 4.16406H29.3262L27.9614 8.85498C27.8599 9.2041 27.6187 9.38818 27.2695 9.38818ZM37.4512 9.38818C35.623 9.38818 34.3916 8.07422 34.3916 5.97314C34.3916 3.86572 35.623 2.55811 37.4512 2.55811C39.2729 2.55811 40.5044 3.86572 40.5044 5.97314C40.5044 8.07422 39.2729 9.38818 37.4512 9.38818ZM37.4512 8.41699C38.6191 8.41699 39.3809 7.52832 39.3809 5.97314C39.3809 4.41797 38.6191 3.5293 37.4512 3.5293C36.2832 3.5293 35.5151 4.41797 35.5151 5.97314C35.5151 7.52832 36.2832 8.41699 37.4512 8.41699ZM42.1738 9.38818C41.8501 9.38818 41.6216 9.14697 41.6216 8.79785V3.1167C41.6216 2.78662 41.8374 2.55811 42.1421 2.55811C42.4468 2.55811 42.6626 2.78662 42.6626 3.1167V3.75146H42.688C42.8784 3.06592 43.5259 2.55811 44.186 2.55811C44.4272 2.55811 44.5986 2.61523 44.7065 2.7168C44.8018 2.80566 44.8462 2.93262 44.8462 3.08496C44.8462 3.25635 44.7891 3.3833 44.6748 3.47217C44.5605 3.56738 44.3892 3.61182 44.1479 3.61182C43.1514 3.61182 42.7261 4.3291 42.7261 5.17334V8.79785C42.7261 9.14697 42.4976 9.38818 42.1738 9.38818ZM47.8169 9.38818C46.1348 9.38818 44.9922 8.04248 44.9922 5.97314C44.9922 3.90381 46.1284 2.55811 47.7915 2.55811C48.7373 2.55811 49.499 3.02148 49.8926 3.74512H49.918V0.590332C49.918 0.241211 50.1465 0 50.4702 0C50.7939 0 51.0225 0.241211 51.0225 0.590332V8.84863C51.0225 9.16602 50.8003 9.38818 50.4829 9.38818C50.1719 9.38818 49.918 9.17236 49.918 8.84863V8.09326H49.8989C49.5371 8.88037 48.8516 9.38818 47.8169 9.38818ZM48.0264 8.41699C49.1626 8.41699 49.9243 7.45215 49.9243 5.97314C49.9243 4.50049 49.1626 3.5293 48.0264 3.5293C46.8584 3.5293 46.1221 4.48145 46.1221 5.97314C46.1221 7.47119 46.8584 8.41699 48.0264 8.41699Z" fill="#C9C9C9"/>
</svg>
