<svg width="137" height="202" viewBox="0 0 137 202" fill="none" xmlns="http://www.w3.org/2000/svg">
<circle cx="66.4084" cy="48.9896" r="27.2165" fill="white"/>
<rect x="56.0659" y="67.4968" width="20.1402" height="17.4185" fill="white"/>
<rect x="39.1919" y="76.2061" width="54.4329" height="73.4844" rx="27.2165" fill="white"/>
<path d="M89.5498 105.047L76.2064 93.8511L117.843 44.2304C120.935 40.5457 126.428 40.0651 130.113 43.1569C133.798 46.2487 134.278 51.7421 131.186 55.4268L89.5498 105.047Z" fill="white"/>
<path d="M47.2349 105.047L60.5782 93.8511L18.9416 44.2304C15.8498 40.5457 10.3563 40.0651 6.67166 43.1569C2.98699 46.2487 2.50637 51.7421 5.59818 55.4268L47.2349 105.047Z" fill="white"/>
<path d="M49.5015 126.284L66.3265 130.793L49.5614 193.361C48.3165 198.007 43.5409 200.764 38.8948 199.519C34.2487 198.274 31.4915 193.499 32.7364 188.852L49.5015 126.284Z" fill="white"/>
<path d="M66.4082 130.793L83.2332 126.284L99.9983 188.852C101.243 193.498 98.486 198.274 93.8399 199.519C89.1938 200.764 84.4182 198.007 83.1733 193.361L66.4082 130.793Z" fill="white"/>
<rect x="27.7607" y="14.7395" width="2.72165" height="15.2412" rx="1.36082" transform="rotate(-38 27.7607 14.7395)" fill="white"/>
<rect x="43.127" y="5.08804" width="2.72165" height="15.2412" rx="1.36082" transform="rotate(-28 43.127 5.08804)" fill="white"/>
<rect x="63.2671" y="3.8147e-06" width="2.72165" height="15.2412" rx="1.36082" fill="white"/>
<rect width="2.72165" height="15.2412" rx="1.36082" transform="matrix(-0.788011 -0.615662 -0.615662 0.788011 101.643 14.7395)" fill="white"/>
<rect width="2.72165" height="15.2412" rx="1.36082" transform="matrix(-0.882948 -0.469472 -0.469472 0.882948 86.2769 5.08804)" fill="white"/>
<rect width="2.72165" height="15.2412" rx="1.36082" transform="matrix(-1 0 0 1 66.1367 3.8147e-06)" fill="white"/>
</svg>
