<svg width="186" height="352" viewBox="0 0 186 352" fill="none" xmlns="http://www.w3.org/2000/svg">
<path d="M143.273 55C143.273 85.3757 118.648 110 88.2726 110C57.8969 110 33.2726 85.3757 33.2726 55C33.2726 24.6243 57.8969 0 88.2726 0C118.648 0 143.273 24.6243 143.273 55Z" fill="white"/>
<path d="M41.2726 155C41.2726 130.147 61.4197 110 86.2726 110C111.125 110 131.273 130.147 131.273 155V210C131.273 234.853 111.125 255 86.2726 255C61.4197 255 41.2726 234.853 41.2726 210V155Z" fill="white"/>
<path d="M71.2726 88H105.273V118H71.2726V88Z" fill="white"/>
<path d="M100.273 134C100.273 125.163 107.436 118 116.273 118H171.558C179.132 118 185.273 124.14 185.273 131.714C185.273 141.813 177.086 150 166.987 150H116.273C107.436 150 100.273 142.837 100.273 134Z" fill="white"/>
<path d="M166.987 149.49C159.413 149.49 153.273 143.35 153.273 135.776V80.49C153.273 71.6535 160.436 64.49 169.273 64.49C178.109 64.49 185.273 79.1634 185.273 88V131.204C185.273 141.303 177.086 149.49 166.987 149.49Z" fill="white"/>
<path d="M136.53 300.077C129.355 304.219 120.181 301.761 116.039 294.587L87.2892 244.79C82.4567 236.42 85.3245 225.717 93.6946 220.885C102.065 216.052 112.768 218.92 117.6 227.29L143.85 272.756C149.373 282.322 146.095 294.554 136.53 300.077Z" fill="white"/>
<path d="M152.789 347.859C143.707 351.165 133.665 346.482 130.359 337.4L111.087 284.452C108.036 276.068 112.359 266.799 120.742 263.747C130.523 260.187 141.338 265.23 144.897 275.011L163.248 325.429C166.554 334.511 161.871 344.554 152.789 347.859Z" fill="white"/>
<path d="M66.7486 212.916C76.4003 212.41 84.6346 219.824 85.1405 229.476L87.7136 278.575C88.3881 291.444 78.5024 302.423 65.6335 303.098C59.199 303.435 53.7094 298.492 53.3722 292.058L50.1884 231.308C49.6826 221.656 57.0968 213.422 66.7486 212.916Z" fill="white"/>
<path d="M73.3878 264.489C84.7405 268.621 90.5939 281.174 86.4619 292.526L68.6867 341.363C65.6354 349.747 56.3656 354.069 47.9821 351.018C38.2014 347.458 33.1584 336.643 36.7183 326.863L56.5654 272.333C59.0446 265.522 66.5762 262.01 73.3878 264.489Z" fill="white"/>
<path d="M2.27256 174.356C-2.14572 166.704 0.476282 156.918 8.12896 152.5L49.4095 128.667C59.6131 122.776 72.6603 126.272 78.5514 136.475C81.4969 141.577 79.7489 148.101 74.6471 151.046L24.129 180.213C16.4763 184.631 6.69083 182.009 2.27256 174.356Z" fill="white"/>
<path d="M27.7896 237.354C19.0873 238.889 10.7887 233.078 9.25429 224.376L0.264655 173.393C-1.38783 164.021 4.86984 155.084 14.2416 153.432C22.2745 152.016 29.9346 157.379 31.3511 165.412L40.7681 218.819C42.3026 227.521 36.4919 235.82 27.7896 237.354Z" fill="white"/>
</svg>
