<svg width="270" height="398" viewBox="0 0 270 398" fill="none" xmlns="http://www.w3.org/2000/svg">
<circle cx="130.886" cy="96.5555" r="53.6419" fill="white"/>
<rect x="110.502" y="133.032" width="39.695" height="34.3308" fill="white"/>
<rect x="77.2444" y="150.197" width="107.284" height="144.833" rx="50" fill="white"/>
<path d="M176.496 207.042L150.197 184.975L232.261 87.1754C238.354 79.9131 249.182 78.9658 256.444 85.0596C263.706 91.1533 264.653 101.981 258.56 109.243L176.496 207.042Z" fill="white"/>
<path d="M93.0972 207.042L119.396 184.975L37.3328 87.1754C31.2391 79.9131 20.4119 78.9658 13.1496 85.0596C5.88739 91.1533 4.94012 101.981 11.0339 109.243L93.0972 207.042Z" fill="white"/>
<path d="M97.5647 248.899L130.726 257.784L97.6829 381.102C95.2292 390.259 85.8168 395.693 76.6596 393.239C67.5025 390.786 62.0682 381.373 64.5218 372.216L97.5647 248.899Z" fill="white"/>
<path d="M130.886 257.784L164.047 248.899L197.09 372.216C199.544 381.373 194.11 390.786 184.952 393.239C175.795 395.693 166.383 390.259 163.929 381.102L130.886 257.784Z" fill="white"/>
<rect x="54.7148" y="29.0507" width="5.36419" height="30.0395" rx="2.6821" transform="rotate(-38 54.7148 29.0507)" fill="white"/>
<rect x="85.0002" y="10.0282" width="5.36419" height="30.0395" rx="2.6821" transform="rotate(-28 85.0002 10.0282)" fill="white"/>
<rect x="124.695" width="5.36419" height="30.0395" rx="2.6821" fill="white"/>
<rect width="5.36419" height="30.0395" rx="2.6821" transform="matrix(-0.788011 -0.615662 -0.615662 0.788011 200.33 29.0507)" fill="white"/>
<rect width="5.36419" height="30.0395" rx="2.6821" transform="matrix(-0.882948 -0.469472 -0.469472 0.882948 170.045 10.0282)" fill="white"/>
<rect width="5.36419" height="30.0395" rx="2.6821" transform="matrix(-1 0 0 1 130.35 0)" fill="white"/>
</svg>
